{
  "asset": {
    "version": "2.0",
    "generator": "LAB2 LoD3 footprint extruder"
  },
  "scene": 0,
  "scenes": [
    {
      "nodes": [
        0
      ]
    }
  ],
  "nodes": [
    {
      "mesh": 0,
      "name": "Nhà hát Thành phố",
      "extras": {
        "height_m": 26.0
      }
    }
  ],
  "meshes": [
    {
      "name": "Nhà hát Thành phố",
      "primitives": [
        {
          "mode": 4,
          "attributes": {
            "POSITION": 0,
            "NORMAL": 1
          },
          "indices": 2,
          "material": 0
        },
        {
          "mode": 4,
          "attributes": {
            "POSITION": 0,
            "NORMAL": 1
          },
          "indices": 3,
          "material": 1
        },
        {
          "mode": 4,
          "attributes": {
            "POSITION": 0,
            "NORMAL": 1
          },
          "indices": 4,
          "material": 2
        },
        {
          "mode": 4,
          "attributes": {
            "POSITION": 0,
            "NORMAL": 1
          },
          "indices": 5,
          "material": 3
        },
        {
          "mode": 4,
          "attributes": {
            "POSITION": 0,
            "NORMAL": 1
          },
          "indices": 6,
          "material": 4
        },
        {
          "mode": 4,
          "attributes": {
            "POSITION": 0,
            "NORMAL": 1
          },
          "indices": 7,
          "material": 5
        },
        {
          "mode": 4,
          "attributes": {
            "POSITION": 0,
            "NORMAL": 1
          },
          "indices": 8,
          "material": 6
        }
      ]
    }
  ],
  "materials": [
    {
      "name": "BasementStone",
      "pbrMetallicRoughness": {
        "baseColorFactor": [
          0.33,
          0.3,
          0.28,
          1.0
        ],
        "metallicFactor": 0.0,
        "roughnessFactor": 0.95
      }
    },
    {
      "name": "PodiumCream",
      "pbrMetallicRoughness": {
        "baseColorFactor": [
          0.83,
          0.76,
          0.63,
          1.0
        ],
        "metallicFactor": 0.05,
        "roughnessFactor": 0.82
      }
    },
    {
      "name": "BodyLowerRose",
      "pbrMetallicRoughness": {
        "baseColorFactor": [
          0.78,
          0.45,
          0.44,
          1.0
        ],
        "metallicFactor": 0.12,
        "roughnessFactor": 0.7
      }
    },
    {
      "name": "BodyMidBrick",
      "pbrMetallicRoughness": {
        "baseColorFactor": [
          0.67,
          0.32,
          0.31,
          1.0
        ],
        "metallicFactor": 0.15,
        "roughnessFactor": 0.64
      }
    },
    {
      "name": "BodyUpperTerracotta",
      "pbrMetallicRoughness": {
        "baseColorFactor": [
          0.58,
          0.24,
          0.25,
          1.0
        ],
        "metallicFactor": 0.18,
        "roughnessFactor": 0.58
      }
    },
    {
      "name": "RoofDrum",
      "pbrMetallicRoughness": {
        "baseColorFactor": [
          0.73,
          0.66,
          0.55,
          1.0
        ],
        "metallicFactor": 0.12,
        "roughnessFactor": 0.62
      }
    },
    {
      "name": "RoofTop",
      "pbrMetallicRoughness": {
        "baseColorFactor": [
          0.86,
          0.8,
          0.71,
          1.0
        ],
        "metallicFactor": 0.08,
        "roughnessFactor": 0.72
      }
    }
  ],
  "buffers": [
    {
      "byteLength": 4516,
      "uri": "data:application/octet-stream;base64,"
    }
  ],
  "bufferViews": [
    {
      "buffer": 0,
      "byteOffset": 0,
      "byteLength": 1512,
      "target": 34962
    },
    {
      "buffer": 0,
      "byteOffset": 1512,
      "byteLength": 1512,
      "target": 34962
    },
    {
      "buffer": 0,
      "byteOffset": 3024,
      "byteLength": 116,
      "target": 34963
    },
    {
      "buffer": 0,
      "byteOffset": 3140,
      "byteLength": 252,
      "target": 34963
    },
    {
      "buffer": 0,
      "byteOffset": 3392,
      "byteLength": 252,
      "target": 34963
    },
    {
      "buffer": 0,
      "byteOffset": 3644,
      "byteLength": 252,
      "target": 34963
    },
    {
      "buffer": 0,
      "byteOffset": 3896,
      "byteLength": 252,
      "target": 34963
    },
    {
      "buffer": 0,
      "byteOffset": 4148,
      "byteLength": 252,
      "target": 34963
    },
    {
      "buffer": 0,
      "byteOffset": 4400,
      "byteLength": 116,
      "target": 34963
    }
  ],
  "accessors": [
    {
      "bufferView": 0,
      "componentType": 5126,
      "count": 126,
      "type": "VEC3",
      "min": [
        -26.005832,
        0.0,
        -28.53887
      ],
      "max": [
        41.632931,
        26.0,
        40.845098
      ]
    },
    {
      "bufferView": 1,
      "componentType": 5126,
      "count": 126,
      "type": "VEC3",
      "min": [
        -1.0,
        -1.0,
        -1.0
      ],
      "max": [
        1.0,
        1.0,
        1.0
      ]
    },
    {
      "bufferView": 2,
      "componentType": 5123,
      "count": 57,
      "type": "SCALAR",
      "min": [
        0
      ],
      "max": [
        125
      ]
    },
    {
      "bufferView": 3,
      "componentType": 5123,
      "count": 126,
      "type": "SCALAR",
      "min": [
        0
      ],
      "max": [
        125
      ]
    },
    {
      "bufferView": 4,
      "componentType": 5123,
      "count": 126,
      "type": "SCALAR",
      "min": [
        0
      ],
      "max": [
        125
      ]
    },
    {
      "bufferView": 5,
      "componentType": 5123,
      "count": 126,
      "type": "SCALAR",
      "min": [
        0
      ],
      "max": [
        125
      ]
    },
    {
      "bufferView": 6,
      "componentType": 5123,
      "count": 126,
      "type": "SCALAR",
      "min": [
        0
      ],
      "max": [
        125
      ]
    },
    {
      "bufferView": 7,
      "componentType": 5123,
      "count": 126,
      "type": "SCALAR",
      "min": [
        0
      ],
      "max": [
        125
      ]
    },
    {
      "bufferView": 8,
      "componentType": 5123,
      "count": 57,
      "type": "SCALAR",
      "min": [
        0
      ],
      "max": [
        125
      ]
    }
  ]
}